<svg xmlns="http://www.w3.org/2000/svg" xml:space="preserve" width="68" height="68" viewBox="0 0 512 512">
  <path d="M256 0C114.6 0 0 114.6 0 256s114.6 256 256 256 256-114.6 256-256S397.4 0 256 0zm0 472c-119.3 0-216-96.7-216-216S136.7 40 256 40s216 96.7 216 216-96.7 216-216 216z"/>
  <path d="M327.13 383.97c5.7.01 56.87-37.83 56.87-42.66s-57.27-40.9-62.22-40.9-21.58 19.94-26.06 22.15c-4.5 2.22-32.5 1.42-63.7-29.78-31.22-31.18-41.88-67.1-41.88-72.75 0-5.64 26.03-23.06 26.75-27.15.72-4.1-34.31-64.88-40-64.88S128 180.5 128 184.88s3.95 60.65 75.22 131.9 118.2 67.16 123.9 67.19z"/>
</svg>
